<?xml version="1.0" encoding="utf-8"?>
<!-- Generator: Adobe Illustrator 16.0.4, SVG Export Plug-In . SVG Version: 6.00 Build 0)  -->
<!DOCTYPE svg PUBLIC "-//W3C//DTD SVG 1.1//EN" "http://www.w3.org/Graphics/SVG/1.1/DTD/svg11.dtd">
<svg version="1.1" id="Layer_1" xmlns="http://www.w3.org/2000/svg" xmlns:xlink="http://www.w3.org/1999/xlink" x="0px" y="0px"
	 width="22px" height="22px" viewBox="0 0 24 24" enable-background="new 0 0 24 24" xml:space="preserve">
<path fill="none" d="M0,0h24v24H0V0z"/>
<circle fill="#343434" cx="12" cy="12" r="3"/>
<path fill="#343434" d="M20,4h-3.17l-1.24-1.35C15.221,2.24,14.68,2,14.12,2H9.88C9.32,2,8.78,2.24,8.4,2.65L7.17,4H4
	C2.9,4,2,4.9,2,6v12c0,1.1,0.9,2,2,2h16c1.1,0,2-0.9,2-2V6C22,4.9,21.1,4,20,4z M12,17c-2.76,0-5-2.24-5-5s2.24-5,5-5s5,2.24,5,5
	S14.76,17,12,17z"/>
</svg>
