<?xml version="1.0" encoding="utf-8"?>
<!-- Generator: Adobe Illustrator 16.0.4, SVG Export Plug-In . SVG Version: 6.00 Build 0)  -->
<!DOCTYPE svg PUBLIC "-//W3C//DTD SVG 1.1//EN" "http://www.w3.org/Graphics/SVG/1.1/DTD/svg11.dtd">
<svg version="1.1" id="Layer_1" xmlns="http://www.w3.org/2000/svg" xmlns:xlink="http://www.w3.org/1999/xlink" x="0px" y="0px"
	 width="24px" height="24px" viewBox="0 0 24 24" enable-background="new 0 0 24 24" xml:space="preserve">
<path fill="none" d="M0,0h24v24H0V0z"/>
<path fill="#009DBD" d="M4,10.5c-0.8,0-1.5,0.7-1.5,1.5s0.7,1.5,1.5,1.5s1.5-0.7,1.5-1.5S4.8,10.5,4,10.5z M4,4.5
	C3.2,4.5,2.5,5.2,2.5,6S3.2,7.5,4,7.5S5.5,6.8,5.5,6S4.8,4.5,4,4.5z M4,16.5c-0.8,0-1.5,0.7-1.5,1.5s0.7,1.5,1.5,1.5
	s1.5-0.7,1.5-1.5S4.8,16.5,4,16.5z M8,19h12c0.5,0,1-0.5,1-1s-0.5-1-1-1H8c-0.5,0-1,0.5-1,1S7.5,19,8,19z M8,13h12c0.5,0,1-0.5,1-1
	s-0.5-1-1-1H8c-0.5,0-1,0.5-1,1S7.5,13,8,13z M7,6c0,0.5,0.5,1,1,1h12c0.5,0,1-0.5,1-1s-0.5-1-1-1H8C7.5,5,7,5.5,7,6z"/>
</svg>
